<mxfile host="app.diagrams.net" modified="2022-04-04T17:37:40.290Z" agent="5.0 (Macintosh; Intel Mac OS X 10_15_7) AppleWebKit/605.1.15 (KHTML, like Gecko) Version/15.4 Safari/605.1.15" etag="4XSk9kiicuDaXMfGPuRQ" version="17.4.0" type="github">
  <diagram id="ewq5fsWbSvGaFkBoOvDa" name="Page-1">
    <mxGraphModel dx="961" dy="1821" grid="1" gridSize="10" guides="1" tooltips="1" connect="1" arrows="1" fold="1" page="1" pageScale="1" pageWidth="827" pageHeight="1169" math="0" shadow="0">
      <root>
        <mxCell id="0" />
        <mxCell id="1" parent="0" />
        <mxCell id="YnybIzWRnrSQNAtfizgh-3" style="edgeStyle=orthogonalEdgeStyle;rounded=0;orthogonalLoop=1;jettySize=auto;html=1;exitX=0.5;exitY=1;exitDx=0;exitDy=0;" edge="1" parent="1" source="YnybIzWRnrSQNAtfizgh-1" target="YnybIzWRnrSQNAtfizgh-2">
          <mxGeometry relative="1" as="geometry" />
        </mxCell>
        <mxCell id="YnybIzWRnrSQNAtfizgh-5" style="edgeStyle=orthogonalEdgeStyle;rounded=0;orthogonalLoop=1;jettySize=auto;html=1;exitX=1;exitY=0.5;exitDx=0;exitDy=0;entryX=0;entryY=0.5;entryDx=0;entryDy=0;" edge="1" parent="1" source="YnybIzWRnrSQNAtfizgh-1" target="YnybIzWRnrSQNAtfizgh-4">
          <mxGeometry relative="1" as="geometry" />
        </mxCell>
        <mxCell id="YnybIzWRnrSQNAtfizgh-1" value="&lt;font style=&quot;font-size: 24px&quot;&gt;&lt;b&gt;GA&lt;/b&gt;&lt;/font&gt;" style="rounded=0;whiteSpace=wrap;html=1;" vertex="1" parent="1">
          <mxGeometry x="265" width="210" height="160" as="geometry" />
        </mxCell>
        <mxCell id="YnybIzWRnrSQNAtfizgh-12" style="edgeStyle=orthogonalEdgeStyle;rounded=0;orthogonalLoop=1;jettySize=auto;html=1;exitX=0.5;exitY=1;exitDx=0;exitDy=0;entryX=0.5;entryY=0;entryDx=0;entryDy=0;" edge="1" parent="1" source="YnybIzWRnrSQNAtfizgh-2" target="YnybIzWRnrSQNAtfizgh-11">
          <mxGeometry relative="1" as="geometry" />
        </mxCell>
        <mxCell id="YnybIzWRnrSQNAtfizgh-2" value="Fitting model and input" style="rounded=1;whiteSpace=wrap;html=1;" vertex="1" parent="1">
          <mxGeometry x="310" y="210" width="120" height="60" as="geometry" />
        </mxCell>
        <mxCell id="YnybIzWRnrSQNAtfizgh-10" style="edgeStyle=orthogonalEdgeStyle;rounded=0;orthogonalLoop=1;jettySize=auto;html=1;exitX=1;exitY=0.5;exitDx=0;exitDy=0;entryX=0;entryY=0.5;entryDx=0;entryDy=0;" edge="1" parent="1" source="YnybIzWRnrSQNAtfizgh-4" target="YnybIzWRnrSQNAtfizgh-9">
          <mxGeometry relative="1" as="geometry" />
        </mxCell>
        <mxCell id="YnybIzWRnrSQNAtfizgh-4" value="Errors (e.g. NaN)" style="rounded=1;whiteSpace=wrap;html=1;" vertex="1" parent="1">
          <mxGeometry x="530" y="50" width="120" height="60" as="geometry" />
        </mxCell>
        <mxCell id="YnybIzWRnrSQNAtfizgh-14" style="edgeStyle=orthogonalEdgeStyle;rounded=0;orthogonalLoop=1;jettySize=auto;html=1;exitX=1;exitY=0.25;exitDx=0;exitDy=0;entryX=0;entryY=0.5;entryDx=0;entryDy=0;" edge="1" parent="1" source="YnybIzWRnrSQNAtfizgh-9" target="YnybIzWRnrSQNAtfizgh-15">
          <mxGeometry relative="1" as="geometry">
            <mxPoint x="900" y="65" as="targetPoint" />
          </mxGeometry>
        </mxCell>
        <mxCell id="YnybIzWRnrSQNAtfizgh-17" style="edgeStyle=orthogonalEdgeStyle;rounded=0;orthogonalLoop=1;jettySize=auto;html=1;exitX=1;exitY=0.75;exitDx=0;exitDy=0;entryX=0;entryY=0.5;entryDx=0;entryDy=0;" edge="1" parent="1" source="YnybIzWRnrSQNAtfizgh-9" target="YnybIzWRnrSQNAtfizgh-16">
          <mxGeometry relative="1" as="geometry" />
        </mxCell>
        <mxCell id="YnybIzWRnrSQNAtfizgh-9" value="Error localiztion" style="rounded=0;whiteSpace=wrap;html=1;" vertex="1" parent="1">
          <mxGeometry x="710" y="50" width="120" height="60" as="geometry" />
        </mxCell>
        <mxCell id="YnybIzWRnrSQNAtfizgh-19" value="" style="edgeStyle=orthogonalEdgeStyle;rounded=0;orthogonalLoop=1;jettySize=auto;html=1;" edge="1" parent="1" source="YnybIzWRnrSQNAtfizgh-11" target="YnybIzWRnrSQNAtfizgh-18">
          <mxGeometry relative="1" as="geometry" />
        </mxCell>
        <mxCell id="YnybIzWRnrSQNAtfizgh-11" value="Source Localization" style="rounded=0;whiteSpace=wrap;html=1;" vertex="1" parent="1">
          <mxGeometry x="310" y="320" width="120" height="60" as="geometry" />
        </mxCell>
        <mxCell id="YnybIzWRnrSQNAtfizgh-15" value="Localized" style="rounded=1;whiteSpace=wrap;html=1;" vertex="1" parent="1">
          <mxGeometry x="920" y="-10" width="120" height="60" as="geometry" />
        </mxCell>
        <mxCell id="YnybIzWRnrSQNAtfizgh-16" value="Unlocalized&lt;br&gt;(i.e. to be analyzed)" style="rounded=1;whiteSpace=wrap;html=1;" vertex="1" parent="1">
          <mxGeometry x="920" y="110" width="120" height="60" as="geometry" />
        </mxCell>
        <mxCell id="YnybIzWRnrSQNAtfizgh-18" value="Localized layers" style="whiteSpace=wrap;html=1;rounded=0;" vertex="1" parent="1">
          <mxGeometry x="310" y="430" width="120" height="60" as="geometry" />
        </mxCell>
      </root>
    </mxGraphModel>
  </diagram>
</mxfile>
